<?xml version="1.0" encoding="UTF-8" standalone="no"?>
<!-- Created with Inkscape (http://www.inkscape.org/) -->

<svg
   xmlns:dc="http://purl.org/dc/elements/1.1/"
   xmlns:cc="http://creativecommons.org/ns#"
   xmlns:rdf="http://www.w3.org/1999/02/22-rdf-syntax-ns#"
   xmlns:svg="http://www.w3.org/2000/svg"
   xmlns="http://www.w3.org/2000/svg"
   version="1.1"
   width="216.99998"
   height="58"
   id="svg3020"
   xml:space="preserve"><metadata
     id="metadata3026"><rdf:RDF><cc:Work
         rdf:about=""><dc:format>image/svg+xml</dc:format><dc:type
           rdf:resource="http://purl.org/dc/dcmitype/StillImage" /><dc:title></dc:title></cc:Work></rdf:RDF></metadata><defs
     id="defs3024" /><g
     transform="matrix(1.25,0,0,-1.25,0.99991923,56.999998)"
     id="g3028"><g
       transform="matrix(0.0633338,0,0,0.06283724,2.3691734e-5,0)"
       id="g3030"><path
         d="m 2655.73,171.277 c -2.11,-7.144 -5.25,-13.55 -9.48,-19.168 -4.23,-5.617 -9.55,-10.105 -16.02,-13.484 -6.45,-3.359 -13.89,-5.051 -22.32,-5.051 -9.29,0 -17.01,1.961 -23.16,5.899 -6.2,3.933 -11.17,8.984 -14.96,15.175 -3.79,6.172 -6.48,13.118 -8.02,20.86 -1.54,7.715 -2.32,15.508 -2.32,23.379 0,8.144 0.9,15.937 2.76,23.386 1.81,7.434 4.75,14.043 8.83,19.805 4.08,5.742 9.12,10.324 15.17,13.684 6.05,3.379 13.27,5.066 21.7,5.066 9.82,0 17.98,-1.844 24.43,-5.476 6.46,-3.664 11.65,-8.586 15.59,-14.754 3.94,-6.184 6.75,-13.274 8.45,-21.282 1.68,-8.007 2.5,-16.503 2.5,-25.488 0,-7.871 -1.04,-15.383 -3.15,-22.551 z m 3.15,128.735 0,-29.074 -0.82,0 c -7.33,12.648 -16.39,21.621 -27.19,26.96 -10.82,5.332 -23.37,8.008 -37.73,8.008 -15.16,0 -28.57,-2.957 -40.2,-8.847 -11.67,-5.899 -21.45,-13.836 -29.32,-23.805 -7.87,-9.984 -13.83,-21.496 -17.89,-34.555 -4.06,-13.062 -6.11,-26.621 -6.11,-40.652 0,-14.895 1.76,-29.004 5.25,-42.344 3.52,-13.351 9.07,-25.012 16.64,-34.973 7.59,-9.988 17.3,-17.859 29.1,-23.6128 11.79,-5.7617 25.84,-8.6328 42.12,-8.6328 13.22,0 25.79,2.7539 37.72,8.2344 11.93,5.4692 21.13,13.9452 27.61,25.4692 l 0.82,0 0,-28.6333 c 0.28,-15.4414 -3.43,-28.2344 -11.16,-38.3399 -7.73,-10.125 -20.01,-15.1757 -36.86,-15.1757 -10.67,0 -20.09,2.1875 -28.23,6.5312 -8.16,4.336 -13.64,12.1524 -16.44,23.3711 l -59.42,0 c 0.86,-12.3359 4.3,-22.9609 10.35,-31.7969 6.02,-8.8593 13.61,-16.0859 22.74,-21.7109 9.12,-5.6133 19.23,-9.7461 30.34,-12.42969 C 2581.29,1.33984 2592.19,0 2602.85,0 c 25.01,0 44.93,3.39063 59.82,10.1289 14.88,6.7266 26.27,14.9609 34.14,24.6445 7.87,9.6797 12.98,20.1485 15.38,31.3789 2.38,11.2383 3.58,21.2227 3.58,29.9102 l 0,203.9495 -56.89,0 z m -203.5,-18.75 c -5.89,7.722 -13.97,13.758 -24.23,18.113 -10.24,4.363 -23.38,6.531 -39.41,6.531 -12.63,0 -24.99,-2.879 -37.06,-8.64 -12.08,-5.75 -21.9,-14.961 -29.49,-27.598 l -1.27,0 0,30.344 -56.87,0 0,-217.844 59.83,0 0,114.187 c 0,22.192 3.65,38.137 10.94,47.825 7.3,9.687 19.1,14.543 35.38,14.543 14.34,0 24.3,-4.426 29.92,-13.285 5.61,-8.836 8.44,-22.254 8.44,-40.243 l 0,-123.027 59.83,0 0,133.992 c 0,13.481 -1.2,25.766 -3.58,36.867 -2.39,11.094 -6.53,20.508 -12.43,28.235 z m -284.4,52.449 59.82,0 0,49.301 -59.82,0 0,-49.301 z m 0,-251.543 59.82,0 0,217.844 -59.82,0 0,-217.844 z m -52.69,199.094 c -5.89,7.722 -13.98,13.758 -24.23,18.113 -10.24,4.363 -23.38,6.531 -39.41,6.531 -11.23,0 -22.74,-2.879 -34.52,-8.64 -11.81,-5.75 -21.51,-14.961 -29.1,-27.598 l -1.25,0 0,113.344 -59.82,0 0,-300.844 59.82,0 0,114.187 c 0,22.192 3.66,38.137 10.95,47.825 7.3,9.687 19.11,14.543 35.39,14.543 14.33,0 24.29,-4.426 29.91,-13.285 5.62,-8.836 8.44,-22.254 8.44,-40.243 l 0,-123.027 59.83,0 0,133.992 c 0,13.481 -1.2,25.766 -3.58,36.867 -2.39,11.094 -6.53,20.508 -12.43,28.235 z m -250.28,84.058 -59.84,0 0,-65.308 -87.2,0 -47.63,-149.172 -0.84,0 -49.29,149.172 -51.84,0 0,3.789 c -4.76,1.394 -9.13,2.105 -13.06,2.105 -7.59,0 -14.89,-1.121 -21.9,-3.379 -7.03,-2.246 -13.63,-5.41 -19.81,-9.468 -6.17,-4.075 -11.66,-8.996 -16.44,-14.75 -4.77,-5.758 -8.57,-12.02 -11.38,-18.75 l -0.82,0 0,40.453 -56.89,0 0,-217.844 59.83,0 0,98.176 c 0,9.832 0.98,18.965 2.95,27.39 1.95,8.426 5.27,15.801 9.89,22.118 4.65,6.32 10.75,11.308 18.34,14.961 7.58,3.644 16.85,5.468 27.81,5.468 3.65,0 7.45,-0.203 11.38,-0.625 3.92,-0.418 7.3,-0.918 10.1,-1.472 l 0,20.234 64.47,-172.7735 c 1.68,-4.2109 2.54,-8.7031 2.54,-13.4765 0,-6.4532 -1.9,-12.3633 -5.68,-17.6875 -3.8,-5.3399 -9.63,-8.4258 -17.5,-9.2657 -5.91,-0.2929 -11.81,-0.1562 -17.7,0.3985 -5.9,0.5781 -11.67,1.1367 -17.26,1.6992 l 0,-49.29687 c 6.15,-0.56641 12.27,-1.0625 18.31,-1.47266 6.06,-0.41797 12.15,-0.64453 18.33,-0.64453 20.5,0 36.51,3.79687 48.03,11.37496 11.53,7.5899 20.5,20.2266 26.97,37.9414 l 80.06,215.3442 0,-10.579 36.23,0 0,-128.523 c 0,-10.949 1.81,-19.785 5.48,-26.523 3.64,-6.7582 8.64,-11.934 14.96,-15.5863 6.31,-3.6719 13.61,-6.1172 21.92,-7.3946 8.26,-1.2695 17.06,-1.8945 26.33,-1.8945 5.89,0 11.93,0.168 18.1,0.4297 6.2,0.2734 11.82,0.8281 16.86,1.6797 l 0,46.355 c -2.79,-0.574 -5.77,-1.003 -8.84,-1.277 -3.1,-0.281 -6.33,-0.41 -9.69,-0.41 -10.12,0 -16.85,1.687 -20.22,5.051 -3.36,3.379 -5.06,10.117 -5.06,20.222 l 0,107.871 43.81,0 0,40.032 -43.81,0 0,65.308 z M 1249.05,214.473 c 0.27,4.218 1.18,8.984 2.72,14.316 1.54,5.344 4.23,10.399 8.02,15.188 3.79,4.761 8.83,8.765 15.17,11.992 6.31,3.242 14.24,4.859 23.79,4.859 14.62,0 25.51,-3.941 32.67,-11.805 7.15,-7.863 12.15,-19.382 14.96,-34.55 l -97.33,0 z M 1402,225 c -3.96,15.461 -10.32,29.219 -19.18,41.289 -8.86,12.078 -20.16,21.699 -33.92,28.867 -13.76,7.18 -29.91,10.75 -48.47,10.75 -16.56,0 -31.66,-2.957 -45.27,-8.847 -13.64,-5.899 -25.36,-13.973 -35.19,-24.227 -9.85,-10.254 -17.43,-22.402 -22.76,-36.445 -5.33,-14.063 -8,-29.219 -8,-45.508 0,-16.856 2.59,-32.305 7.78,-46.348 5.21,-14.031 12.58,-26.133 22.13,-36.238 9.56,-10.1172 21.2,-17.9102 34.98,-23.3907 13.76,-5.4765 29.21,-8.2031 46.33,-8.2031 24.73,0 45.81,5.5977 63.23,16.8555 17.4,11.2113 30.34,29.9023 38.75,56.0353 l -52.67,0 c -1.97,-6.746 -7.3,-13.133 -15.99,-19.168 -8.74,-6.047 -19.11,-9.055 -31.2,-9.055 -16.86,0 -29.77,4.324 -38.76,13.047 -9,8.711 -13.92,22.754 -14.74,42.141 l 157.15,0 c 1.13,16.851 -0.29,32.996 -4.2,48.445 z m -321.91,-73.73 -0.85,0 -45.92,148.742 -62.785,0 74.575,-217.844 66.57,0 73.75,217.844 -59.42,0 -45.92,-148.742 z m -278.52,60.253 145.785,0 0,51.407 -145.785,0 0,64.461 158.844,0 0,55.621 -225.004,0 0,-300.844 228.383,0 0,55.625 -162.223,0 0,73.73 z m 981.12,347.215 c 1.53,5.328 4.21,10.395 8,15.172 3.81,4.778 8.85,8.774 15.18,12.008 6.3,3.227 14.24,4.844 23.8,4.844 14.6,0 25.49,-3.93 32.66,-11.797 7.15,-7.863 12.13,-19.379 14.96,-34.547 l -97.35,0 c 0.27,4.215 1.21,8.98 2.75,14.32 z m -54.78,-84.269 c 5.19,-14.043 12.56,-26.117 22.11,-36.242 9.55,-10.102 21.21,-17.895 34.99,-23.383 13.75,-5.469 29.2,-8.207 46.34,-8.207 24.72,0 45.8,5.605 63.2,16.855 17.41,11.227 30.34,29.906 38.77,56.039 l -52.67,0 c -1.97,-6.742 -7.3,-13.14 -16.01,-19.179 -8.71,-6.036 -19.11,-9.051 -31.18,-9.051 -16.86,0 -29.77,4.347 -38.76,13.058 -9.01,8.707 -13.91,22.754 -14.76,42.133 l 157.17,0 c 1.11,16.848 -0.28,33.012 -4.22,48.457 -3.93,15.446 -10.32,29.215 -19.18,41.289 -8.84,12.071 -20.14,21.703 -33.92,28.864 -13.75,7.164 -29.92,10.746 -48.44,10.746 -16.56,0 -31.67,-2.957 -45.31,-8.844 -13.63,-5.895 -25.34,-13.977 -35.17,-24.227 -9.83,-10.261 -17.41,-22.41 -22.75,-36.449 -5.34,-14.058 -8.01,-29.219 -8.01,-45.508 0,-16.851 2.6,-32.308 7.8,-46.351 z m -83.23,35.82 c 0,9.824 1,18.961 2.97,27.387 1.95,8.422 5.26,15.793 9.89,22.121 4.64,6.328 10.75,11.305 18.34,14.953 7.59,3.652 16.85,5.477 27.8,5.477 3.65,0 7.44,-0.207 11.38,-0.625 3.93,-0.422 7.29,-0.914 10.11,-1.477 l 0,55.625 c -4.78,1.391 -9.14,2.098 -13.06,2.098 -7.59,0 -14.9,-1.125 -21.91,-3.371 -7.03,-2.247 -13.65,-5.418 -19.8,-9.473 -6.18,-4.078 -11.66,-9 -16.44,-14.75 -4.77,-5.766 -8.57,-12.016 -11.37,-18.75 l -0.84,0 0,40.449 -56.9,0 0,-217.84 59.83,0 0,98.176 z m -152.93,-67.848 1.25,0 0,-30.328 56.89,0 0,217.84 -59.84,0 0,-114.187 c 0,-22.192 -3.64,-38.133 -10.94,-47.832 -7.32,-9.68 -19.11,-14.536 -35.41,-14.536 -14.31,0 -24.3,4.43 -29.92,13.282 -5.61,8.847 -8.42,22.254 -8.42,40.23 l 0,123.043 -59.83,0 0,-133.992 c 0,-13.488 1.21,-25.777 3.59,-36.867 2.37,-11.106 6.52,-20.508 12.43,-28.231 5.9,-7.734 13.95,-13.699 24.22,-17.914 10.25,-4.215 23.38,-6.312 39.4,-6.312 12.62,0 25.01,2.804 37.06,8.426 12.1,5.621 21.94,14.742 29.52,27.378 z m -268,18.969 c 0,-10.961 1.83,-19.808 5.48,-26.543 3.65,-6.742 8.66,-11.941 14.95,-15.59 6.34,-3.656 13.64,-6.109 21.94,-7.382 8.26,-1.254 17.05,-1.895 26.33,-1.895 5.89,0 11.92,0.152 18.11,0.43 6.17,0.277 11.81,0.84 16.86,1.683 l 0,46.344 c -2.82,-0.566 -5.77,-0.984 -8.85,-1.262 -3.11,-0.293 -6.33,-0.418 -9.69,-0.418 -10.13,0 -16.85,1.68 -20.22,5.047 -3.38,3.375 -5.08,10.117 -5.08,20.227 l 0,107.871 43.84,0 0,40.031 -43.84,0 0,65.305 -59.83,0 0,-65.305 -36.22,0 0,-40.031 36.22,0 0,-128.512 z M 984.438,430.863 c 5.894,-7.734 13.96,-13.699 24.222,-17.914 10.26,-4.215 23.39,-6.312 39.4,-6.312 12.64,0 25,2.804 37.07,8.426 12.08,5.621 21.92,14.742 29.5,27.378 l 1.26,0 0,-30.328 56.89,0 0,217.84 -59.84,0 0,-114.187 c 0,-22.192 -3.65,-38.133 -10.94,-47.832 -7.32,-9.68 -19.11,-14.536 -35.4,-14.536 -14.33,0 -24.31,4.43 -29.92,13.282 -5.62,8.847 -8.43,22.254 -8.43,40.23 l 0,123.043 -59.828,0 0,-133.992 c 0,-13.488 1.195,-25.777 3.582,-36.867 2.375,-11.106 6.531,-20.508 12.434,-28.231 z M 801.57,536.41 l 125.989,0 0,51.403 -125.989,0 0,69.531 145.364,0 0,55.609 -211.524,0 0,-300.84 66.16,0 0,124.297"
         id="path3032"
         style="fill:#231f20;fill-opacity:1;fill-rule:nonzero;stroke:none" /><path
         d="m 318.43,350.715 c -32.91,0.586 -59.137,27.941 -58.551,61.082 0.566,33.168 27.734,59.566 60.644,59.004 32.915,-0.582 59.122,-27.93 58.547,-61.09 -0.57,-33.164 -27.718,-59.555 -60.64,-58.996 z m 327.5,53.711 c 0,0.539 -0.032,1.051 -0.032,1.586 -0.437,143.324 -94.222,264.558 -223.746,306.359 L 237.938,527.512 C 203.18,496.875 178.633,460.59 177.793,413.258 176.41,334.434 238.75,269.426 316.992,268.047 c 78.266,-1.387 142.809,61.394 144.176,140.207 0.973,56.875 -31.195,106.555 -78.578,130.324 l 61.758,64.969 C 523.73,552.496 557.793,479.285 556.484,403.281 554.234,273.328 447.828,169.863 318.828,172.109 189.844,174.395 87.0898,281.582 89.3477,411.504 90.1953,461.898 116.598,526.902 147.234,562.156 L 86.8555,625.113 C 72.0039,609.188 58.7969,591.785 47.3672,573.098 22.5391,528.453 4.46875,474.293 0.882813,426.277 0.503906,420.473 0.0703125,414.688 0.00390625,408.805 -0.0351563,401.52 0.28125,394.324 0.714844,387.152 0.871094,384.176 0.925781,381.16 1.15625,378.207 11.668,259.07 86.0859,158.008 190.145,110.691 c 0.796,-0.359 1.535,-0.757 2.316,-1.121 7.691,-3.437 15.629,-6.347 23.613,-9.179 2.289,-0.8012 4.485,-1.7191 6.778,-2.4691 6.777,-2.2305 13.753,-4.0039 20.738,-5.7656 3.605,-0.918 7.148,-1.9883 10.808,-2.8008 6.028,-1.2813 12.2,-2.1758 18.344,-3.125 4.723,-0.7305 9.383,-1.6485 14.16,-2.168 5.485,-0.6055 11.078,-0.8008 16.621,-1.1641 5.563,-0.3203 11.082,-0.7812 16.719,-0.8281 5.25,-0.039 10.41,0.3125 15.613,0.5274 5.809,0.2226 11.641,0.3398 17.375,0.8593 5.532,0.5352 10.95,1.4453 16.399,2.2344 5.117,0.7539 10.277,1.3789 15.312,2.3438 6.454,1.2734 12.754,2.9336 19.075,4.6015 3.777,0.9649 7.617,1.7891 11.316,2.8985 7.852,2.3476 15.512,5.1288 23.106,8.0668 1.957,0.746 3.964,1.371 5.898,2.14 113.336,46.367 194.641,155.781 200.93,285.699 0.187,4.336 0.652,8.602 0.664,12.985"
         id="path3034"
         style="fill:#231f20;fill-opacity:1;fill-rule:nonzero;stroke:none" /></g></g></svg>